<?xml version="1.0" standalone="no"?>
<!DOCTYPE svg PUBLIC "-//W3C//DTD SVG 20010904//EN"
 "http://www.w3.org/TR/2001/REC-SVG-20010904/DTD/svg10.dtd">
<svg version="1.0" xmlns="http://www.w3.org/2000/svg"
 width="1920.000000pt" height="1920.000000pt" viewBox="0 0 1920.000000 1920.000000"
 preserveAspectRatio="xMidYMid meet">
<metadata>
Created by potrace 1.14, written by Peter Selinger 2001-2017
</metadata>
<g transform="translate(0.000000,1920.000000) scale(0.100000,-0.100000)"
fill="#000000" stroke="none">
<path d="M10499 17679 c0 -19 -2 -41 -3 -49 -2 -8 -7 -44 -11 -80 -4 -36 -9
-74 -11 -85 -2 -11 -6 -38 -8 -60 -11 -88 -23 -183 -31 -235 -2 -14 -6 -59
-10 -100 -3 -41 -8 -82 -10 -90 -15 -57 -23 -468 -11 -582 16 -157 54 -272
123 -368 58 -82 187 -177 245 -182 24 -2 24 -4 23 -96 l0 -94 -40 -17 c-136
-57 -314 -204 -454 -377 -32 -39 -61 -117 -64 -169 -2 -27 1 -30 28 -29 51 2
105 13 179 36 39 12 74 23 79 24 4 1 8 2 10 4 3 2 23 7 61 15 16 3 33 8 36 10
4 2 20 7 37 9 56 10 168 47 228 76 65 30 146 96 201 161 50 61 58 77 43 96
-18 21 -118 88 -192 128 -57 31 -62 36 -64 70 0 19 -4 42 -7 50 -3 8 -2 15 2
15 4 0 6 17 4 38 -3 27 0 39 10 40 15 1 52 9 56 12 1 2 5 3 10 4 47 8 179 127
213 194 8 15 16 29 19 32 16 16 56 114 74 184 22 83 27 221 12 296 -10 45 -14
69 -20 100 -7 41 -78 223 -98 249 -10 13 -18 28 -18 33 0 11 -100 175 -139
228 -90 122 -203 253 -321 370 -74 74 -145 144 -157 154 l-23 19 -1 -34z m173
-681 c61 -49 204 -191 241 -236 37 -47 97 -140 97 -151 0 -6 3 -11 8 -11 8 0
18 -21 51 -107 12 -29 18 -53 16 -53 -3 0 0 -10 6 -22 17 -32 20 -200 3 -253
-33 -112 -90 -192 -161 -229 -43 -21 -56 -20 -50 4 3 11 2 20 -3 20 -4 0 -4
18 0 40 4 22 3 43 -1 46 -5 3 -7 10 -4 15 10 16 -5 47 -25 52 -41 11 -53 -14
-54 -109 -1 -51 -6 -89 -11 -88 -45 2 -135 69 -173 128 -29 44 -60 109 -69
141 -8 27 -11 248 -4 260 3 6 6 21 7 35 2 28 13 149 18 195 2 17 7 64 11 105
4 41 8 82 10 90 3 17 17 147 18 168 0 6 2 12 3 12 2 0 31 -23 66 -52z"/>
<path d="M8042 17683 c1 -18 -11 -133 -17 -165 -2 -9 -7 -43 -10 -75 -8 -62
-10 -84 -19 -150 -10 -76 -17 -127 -22 -178 -2 -27 -7 -67 -9 -88 -5 -41 -14
-148 -20 -237 -6 -88 -6 -311 0 -360 3 -25 8 -61 10 -80 5 -36 5 -40 25 -125
11 -49 78 -186 106 -215 44 -47 84 -87 101 -100 24 -20 119 -63 138 -63 12 0
15 -18 15 -99 0 -64 -4 -98 -11 -98 -25 0 -163 -77 -206 -115 -6 -5 -26 -21
-45 -35 -61 -45 -206 -196 -241 -251 -35 -55 -44 -78 -53 -125 -12 -64 -10
-65 44 -59 26 4 56 9 67 13 21 6 26 7 65 15 14 3 47 13 74 22 26 9 56 18 65
20 9 2 43 11 76 20 57 16 72 20 113 29 36 9 118 39 169 63 47 22 203 158 203
177 0 4 7 14 15 22 25 26 17 50 -27 80 -24 16 -45 31 -48 35 -9 9 -151 89
-160 89 -4 0 -10 6 -12 13 -4 10 -3 149 1 169 0 3 23 11 51 18 52 12 116 53
162 102 36 37 88 114 88 127 0 6 4 11 8 11 8 0 39 65 47 95 1 6 10 35 20 65
41 132 21 379 -45 535 -67 159 -192 369 -287 481 -10 11 -36 43 -58 70 -101
122 -342 364 -364 364 -5 0 -9 -8 -9 -17z m163 -675 c209 -170 350 -349 409
-521 30 -88 37 -125 38 -212 1 -143 -77 -292 -178 -340 -20 -9 -39 -14 -42
-10 -4 3 -7 43 -7 87 -1 65 -5 83 -19 94 -19 13 -45 9 -58 -10 -4 -6 -8 -50
-8 -98 l0 -87 -32 11 c-69 23 -143 93 -183 175 -53 107 -59 193 -30 438 2 22
7 72 11 110 4 39 8 81 10 95 15 125 27 243 28 273 0 35 13 34 61 -5z"/>
<path d="M8788 15453 c-9 -2 -25 -20 -35 -40 -10 -19 -22 -43 -28 -54 -5 -10
-14 -19 -20 -19 -5 0 -18 -12 -29 -28 -45 -67 -212 -161 -401 -225 -59 -21
-207 -59 -280 -73 -23 -4 -59 -12 -95 -20 -14 -3 -37 -7 -52 -10 -58 -8 -94
-31 -113 -70 -16 -33 -19 -70 -22 -249 -4 -187 -2 -214 14 -245 17 -33 21 -35
63 -33 44 1 60 4 90 16 36 14 175 51 275 72 52 11 209 56 261 75 33 12 69 24
82 27 12 3 22 9 22 14 0 5 6 9 13 9 34 0 164 117 215 195 15 22 29 42 32 45
18 18 125 228 143 282 38 112 24 209 -40 269 -59 54 -77 66 -95 62z"/>
<path d="M11211 15413 c-16 -27 -42 -63 -58 -81 -63 -76 -208 -168 -333 -214
-30 -11 -62 -22 -70 -25 -8 -3 -19 -7 -25 -8 -5 -2 -35 -10 -66 -19 -69 -20
-61 -18 -249 -60 -182 -40 -208 -50 -217 -85 -3 -14 -8 -30 -12 -36 -8 -15
-11 -51 -14 -243 -3 -175 5 -234 35 -254 15 -10 96 -2 136 14 15 6 36 14 47
18 17 7 124 33 181 44 125 25 371 103 431 138 63 36 121 87 174 152 65 80 64
79 72 96 4 8 18 33 31 55 27 44 73 136 76 147 0 4 11 31 24 60 13 29 23 68 22
86 -1 19 2 36 6 38 4 3 5 10 3 17 -2 7 -7 25 -9 40 -10 56 -61 119 -125 152
l-31 15 -29 -47z"/>
<path d="M8985 15064 c-10 -10 -35 -55 -56 -99 -74 -154 -114 -212 -204 -298
-55 -53 -167 -137 -182 -137 -6 0 -21 -8 -34 -19 -28 -21 -257 -109 -314 -120
-3 -1 -6 -1 -7 -2 -2 0 -14 -3 -27 -5 -21 -4 -67 -14 -176 -40 -11 -3 -31 -7
-44 -10 -13 -3 -34 -10 -45 -16 -12 -6 -21 -10 -21 -8 0 7 -101 -22 -115 -33
-39 -32 -45 -54 -56 -217 -10 -157 -10 -160 -1 -229 14 -106 47 -149 97 -128
14 5 30 11 35 13 6 2 30 10 55 19 42 16 54 19 105 30 11 3 31 7 45 11 14 3 39
7 55 10 25 5 147 35 240 60 11 3 27 6 35 7 8 2 56 16 105 32 143 47 229 108
323 230 26 33 50 62 54 63 4 2 8 10 8 18 0 8 5 14 10 14 6 0 10 4 10 10 0 5
15 33 33 62 45 72 84 171 102 252 2 12 7 32 10 46 29 129 23 454 -10 488 -10
11 -15 10 -30 -4z"/>
<path d="M11445 15072 c-6 -4 -37 -60 -69 -124 -115 -234 -257 -372 -483 -471
-106 -47 -303 -105 -407 -121 -6 -1 -17 -5 -23 -9 -7 -5 -13 -6 -13 -3 0 2
-24 -2 -52 -10 -29 -8 -60 -16 -68 -18 -126 -30 -153 -59 -165 -177 -10 -94
-14 -321 -6 -334 3 -5 7 -18 8 -28 4 -22 30 -74 41 -81 4 -2 52 11 105 29 54
19 100 34 102 34 3 1 6 1 8 2 1 0 11 2 22 4 11 3 63 14 115 25 52 11 104 22
115 24 11 3 63 16 115 31 52 15 102 28 110 30 149 34 265 119 385 280 17 22
33 42 38 43 4 2 7 8 7 12 0 5 13 29 29 52 16 24 27 46 25 50 -3 5 -2 8 3 8 4
0 14 15 21 33 8 17 18 41 22 52 67 155 94 506 49 642 -11 34 -16 38 -34 25z"/>
<path d="M8992 14258 c-7 -7 -12 -18 -12 -25 0 -7 -4 -13 -10 -13 -5 0 -9 -3
-8 -7 1 -5 -12 -36 -31 -70 -37 -68 -109 -145 -196 -209 -15 -10 -43 -32 -63
-48 -50 -38 -147 -82 -228 -101 -10 -3 -55 -14 -99 -25 -97 -25 -97 -25 -195
-45 -106 -22 -298 -74 -336 -91 -43 -20 -54 -31 -67 -67 -9 -23 -18 -58 -21
-77 -2 -19 -5 -35 -5 -35 -5 0 -12 -157 -13 -256 0 -96 3 -122 18 -148 19 -33
56 -41 92 -21 16 9 70 32 82 34 3 1 10 4 15 7 14 9 107 39 136 44 13 3 38 8
54 12 17 4 32 7 35 8 3 1 25 5 50 10 52 10 58 12 65 15 3 1 8 3 13 4 4 1 16 5
27 9 11 3 31 8 45 11 109 20 370 124 370 147 0 4 9 10 20 14 65 20 267 273
286 357 7 30 13 504 6 546 -5 34 -11 39 -30 20z"/>
<path d="M11410 14184 c-43 -84 -108 -161 -190 -228 -51 -41 -180 -128 -194
-130 -6 -1 -16 -5 -22 -8 -15 -10 -277 -79 -349 -93 -11 -2 -21 -4 -22 -6 -3
-2 -3 -2 -58 -14 -22 -4 -44 -9 -50 -11 -5 -1 -53 -12 -105 -24 -52 -11 -102
-23 -110 -27 -8 -3 -17 -7 -20 -8 -32 -8 -73 -42 -84 -70 -27 -64 -40 -180
-41 -360 0 -120 3 -145 18 -169 21 -31 54 -32 122 -2 60 26 165 66 165 62 0
-2 21 2 46 10 25 7 49 13 52 12 4 -1 14 1 22 4 8 4 74 20 145 37 261 63 346
97 471 192 70 53 95 77 142 139 15 19 29 37 32 40 3 3 25 37 50 75 43 69 44
71 44 162 1 51 3 93 6 93 7 0 4 354 -4 385 -4 14 -10 25 -14 25 -4 0 -28 -39
-52 -86z"/>
<path d="M8969 13455 c-163 -176 -243 -243 -320 -270 -24 -8 -53 -19 -64 -24
-30 -14 -191 -66 -265 -86 -36 -9 -72 -20 -80 -23 -8 -3 -23 -7 -34 -9 -127
-24 -303 -77 -394 -118 -62 -28 -64 -30 -77 -105 -2 -14 -7 -43 -10 -65 -4
-22 -7 -47 -6 -55 1 -21 1 -99 0 -108 -1 -4 0 -9 1 -12 1 -3 3 -39 5 -80 5
-108 15 -179 26 -186 5 -3 47 12 92 35 89 43 165 67 442 136 99 25 185 47 190
48 249 78 322 114 409 200 127 126 160 231 158 507 0 74 -1 135 -2 135 -1 0
-3 24 -5 53 -4 78 -15 82 -66 27z"/>
<path d="M11395 13423 c-99 -107 -203 -203 -220 -203 -4 0 -20 -9 -36 -21 -16
-11 -33 -18 -38 -14 -5 3 -12 1 -16 -4 -4 -8 -248 -93 -305 -106 -8 -2 -68
-18 -133 -35 -64 -17 -130 -33 -145 -35 -35 -4 -203 -64 -219 -77 -7 -6 -13
-8 -13 -4 0 4 -13 0 -29 -8 -31 -17 -39 -30 -47 -85 -3 -20 -9 -54 -13 -76
-11 -63 0 -359 15 -421 7 -29 18 -27 104 16 75 38 239 90 325 105 11 2 21 4
23 5 2 3 2 3 57 15 22 4 45 9 50 11 6 2 21 5 35 8 55 12 280 82 330 103 137
56 256 147 297 228 9 17 21 37 28 45 7 8 18 38 24 65 6 28 14 61 18 75 3 14 6
116 7 226 2 189 -5 265 -22 264 -4 -1 -38 -35 -77 -77z"/>
<path d="M4367 13410 c-109 -37 -199 -68 -200 -68 -3 -1 -29 -10 -62 -23 -16
-7 -34 -13 -40 -15 -35 -9 -438 -165 -492 -189 -17 -8 -35 -15 -40 -15 -4 0
-21 -7 -38 -16 -16 -9 -50 -24 -75 -34 -57 -23 -174 -77 -287 -133 -377 -187
-640 -389 -821 -632 -29 -38 -57 -75 -62 -82 -18 -22 -91 -172 -115 -238 l-25
-65 0 -3628 0 -3627 -78 -42 c-96 -53 -133 -75 -147 -88 -7 -5 -28 -19 -48
-30 -20 -11 -37 -23 -37 -27 0 -5 -5 -8 -11 -8 -24 0 -172 -122 -284 -235 -73
-73 -175 -204 -175 -224 0 -5 -7 -14 -15 -21 -9 -7 -13 -15 -11 -18 3 -2 -3
-21 -13 -41 -64 -124 -72 -311 -20 -471 39 -121 120 -260 205 -350 23 -25 53
-56 66 -70 19 -21 109 -99 182 -157 43 -35 246 -163 320 -203 91 -49 293 -150
299 -150 3 0 31 -12 63 -27 33 -14 64 -27 69 -29 6 -1 60 -22 120 -46 61 -25
160 -61 220 -82 61 -20 119 -41 130 -46 11 -5 61 -21 110 -35 50 -15 135 -40
190 -56 88 -26 340 -94 388 -105 9 -2 25 -6 35 -8 9 -2 46 -12 82 -21 36 -9
76 -19 90 -22 22 -4 75 -15 135 -29 11 -3 29 -7 40 -9 11 -3 31 -7 45 -10 14
-3 45 -10 70 -15 25 -4 56 -11 70 -14 14 -3 39 -8 55 -11 17 -3 40 -8 53 -10
41 -9 77 -16 132 -26 30 -5 78 -14 105 -20 28 -5 64 -11 80 -13 34 -5 78 -13
115 -21 14 -3 39 -7 55 -9 17 -2 46 -7 65 -11 46 -9 61 -11 150 -24 41 -6 86
-13 100 -16 14 -3 45 -7 70 -10 25 -3 59 -7 75 -10 38 -6 100 -15 144 -21 19
-2 46 -6 60 -9 14 -2 52 -7 84 -10 32 -4 68 -8 80 -11 12 -3 45 -7 72 -10 28
-2 64 -6 80 -9 33 -4 104 -12 180 -20 28 -3 63 -7 79 -10 15 -3 54 -7 85 -9
31 -2 72 -6 91 -10 19 -3 62 -8 95 -11 82 -7 172 -15 220 -20 22 -3 72 -7 110
-10 84 -6 164 -13 225 -19 25 -3 88 -8 140 -11 52 -4 122 -9 155 -12 33 -2 85
-6 115 -8 232 -14 321 -18 362 -19 27 -1 48 -3 48 -6 0 -3 35 -5 78 -6 42 -1
140 -4 217 -7 590 -27 801 -31 1630 -31 802 -1 1446 12 1462 28 3 3 13 1 23
-4 10 -5 20 -7 24 -3 3 3 45 7 93 9 49 1 140 5 203 9 63 4 142 8 175 10 173
10 276 16 330 20 33 2 103 7 155 10 52 4 113 8 135 10 22 3 72 7 110 10 39 3
93 7 120 9 28 3 84 8 125 11 110 10 158 14 220 20 56 6 82 9 200 20 36 4 79 9
95 11 17 2 57 6 90 9 74 7 129 14 164 19 14 3 53 7 86 11 33 3 74 8 90 10 54
8 279 37 310 40 17 2 44 6 61 9 33 6 85 13 209 30 22 3 54 8 70 11 42 7 84 14
130 20 22 3 51 8 65 11 14 2 35 6 48 9 13 2 81 14 150 25 70 12 157 28 194 36
37 7 82 16 100 19 18 3 78 15 133 26 55 11 111 23 125 25 14 3 66 14 115 25
50 12 97 22 105 24 8 2 38 9 65 15 28 6 58 13 68 15 10 2 27 7 37 10 10 3 27
7 37 9 10 2 56 14 103 26 47 12 92 23 100 25 8 2 49 14 90 25 41 12 82 23 90
25 8 2 69 20 135 40 66 20 125 38 130 39 6 1 15 4 20 7 6 4 24 10 40 14 34 9
34 10 55 17 8 4 69 25 135 48 143 50 337 128 455 182 105 49 253 121 260 128
3 3 25 16 50 29 72 39 271 170 325 215 110 90 199 178 258 255 23 31 45 58 50
59 4 2 7 9 7 16 0 6 11 27 24 47 26 38 74 148 81 186 2 13 6 26 9 31 7 12 20
128 20 177 -1 73 -26 197 -44 220 -4 6 -11 21 -15 35 -9 30 -90 164 -125 205
-68 81 -217 221 -280 264 -19 13 -37 26 -40 30 -9 11 -174 119 -202 132 -16 7
-28 15 -28 18 0 3 -20 15 -45 26 -25 11 -45 23 -45 27 0 5 -7 8 -15 8 -8 0
-16 8 -16 18 -2 28 -10 855 -25 2722 -3 349 -6 676 -6 725 -1 50 1 96 5 102 3
5 3 13 0 17 -4 4 -8 170 -9 369 -1 199 -5 706 -8 1127 -4 421 -9 1019 -11
1330 -5 547 -8 647 -20 700 -3 14 -8 39 -10 55 -22 123 -112 318 -212 458 -69
95 -227 257 -337 345 -75 60 -327 232 -340 232 -4 0 -23 10 -44 23 -102 64
-363 189 -537 256 -60 24 -124 49 -142 57 -17 8 -35 14 -40 14 -5 0 -38 11
-74 25 -35 14 -72 27 -81 28 -10 2 -21 6 -24 10 -4 4 -17 7 -29 7 -12 0 -25 3
-29 7 -3 4 -13 8 -21 10 -34 7 -40 9 -50 14 -5 4 -23 10 -40 14 -16 5 -36 10
-42 12 -7 1 -21 5 -30 7 -10 3 -18 5 -18 6 0 1 -11 3 -25 6 -14 2 -36 8 -50
13 -14 5 -50 15 -80 22 -30 6 -66 15 -80 20 -14 5 -45 13 -70 18 -25 5 -81 17
-125 26 -44 9 -89 18 -100 20 -11 2 -33 7 -50 10 -16 3 -27 4 -24 0 4 -3 15
-7 25 -9 11 -2 39 -11 64 -20 25 -9 74 -26 110 -37 36 -12 74 -25 85 -30 25
-11 138 -53 145 -54 3 0 15 -6 28 -13 12 -7 22 -10 22 -6 0 3 6 2 13 -3 6 -5
39 -20 72 -32 33 -13 83 -33 110 -46 28 -12 79 -35 115 -51 142 -62 341 -167
481 -254 231 -143 464 -374 549 -545 14 -28 27 -52 30 -55 7 -7 40 -99 46
-125 2 -11 7 -31 10 -45 21 -83 10 -225 -26 -342 -52 -175 -284 -448 -515
-608 -139 -96 -338 -221 -352 -221 -4 0 -15 -6 -23 -14 -8 -7 -33 -21 -55 -32
-22 -11 -90 -45 -152 -76 -62 -32 -117 -57 -122 -57 -6 0 -11 -5 -11 -10 0 -6
-3 -9 -7 -8 -8 1 -10 1 -143 -57 -130 -56 -383 -157 -400 -159 -8 -2 -22 -5
-30 -9 -31 -13 -186 -69 -198 -71 -7 -1 -18 -8 -24 -14 -7 -7 -20 -12 -29 -12
-10 0 -24 -7 -33 -15 -8 -9 -19 -16 -23 -16 -35 -4 -202 -116 -413 -278 -91
-70 -200 -151 -243 -180 -81 -54 -225 -128 -265 -136 -12 -2 -26 -6 -30 -9
-32 -20 -238 -35 -292 -22 -14 4 -38 8 -55 10 -16 3 -45 9 -63 15 -18 5 -35
10 -37 10 -17 0 -136 50 -228 97 -146 74 -223 101 -337 120 -54 9 -256 9 -323
0 -55 -7 -192 -51 -224 -72 -13 -8 -23 -11 -23 -7 0 5 -4 3 -8 -3 -4 -5 -25
-21 -46 -34 -77 -46 -163 -145 -206 -235 -8 -16 -29 -53 -47 -82 -18 -29 -33
-55 -33 -58 0 -4 -37 -61 -82 -127 -125 -185 -249 -332 -390 -464 -55 -51
-197 -164 -207 -164 -4 0 -16 -8 -27 -18 -30 -28 -193 -109 -275 -136 -111
-37 -164 -47 -266 -47 -104 -1 -152 13 -248 74 -16 10 -98 82 -139 123 -19 19
-123 137 -166 189 -23 28 -52 61 -64 75 -11 14 -55 68 -95 120 -41 52 -77 97
-80 100 -7 6 -111 129 -126 148 -35 46 -280 286 -327 320 -57 42 -177 112
-200 116 -7 2 -25 8 -40 14 -61 25 -197 45 -303 44 -127 -1 -196 -5 -211 -14
-5 -4 -28 -9 -49 -12 -73 -9 -215 -57 -325 -109 -46 -21 -175 -100 -178 -109
-2 -4 -10 -8 -18 -8 -8 0 -14 -4 -14 -10 0 -5 -5 -10 -10 -10 -12 0 -54 -36
-124 -106 -96 -96 -169 -199 -234 -329 -49 -96 -99 -219 -108 -260 -2 -11 -8
-31 -14 -45 -10 -28 -45 -166 -54 -220 -3 -19 -8 -46 -11 -60 -14 -72 -30
-206 -41 -350 -6 -86 -6 -478 0 -560 3 -30 7 -95 11 -145 3 -49 8 -106 10
-125 3 -19 8 -66 11 -104 3 -39 7 -72 9 -76 2 -3 6 -50 10 -105 4 -55 9 -109
11 -120 2 -11 6 -51 9 -90 2 -38 8 -115 12 -170 9 -123 9 -755 0 -845 -10 -91
-28 -236 -32 -250 -1 -3 -5 -27 -10 -55 -10 -58 -9 -52 -18 -90 -4 -16 -9 -40
-11 -51 -3 -12 -20 -69 -40 -127 -64 -192 -148 -332 -261 -436 -52 -46 -151
-111 -178 -115 -7 -1 -16 -4 -22 -8 -9 -6 -66 -22 -125 -36 -35 -9 -276 -8
-328 0 -128 22 -264 77 -350 143 -22 17 -116 110 -132 131 -59 75 -124 196
-150 279 -7 22 -16 49 -21 60 -24 58 -64 265 -75 395 -15 156 -8 606 12 795 2
28 7 75 9 105 5 58 11 115 20 190 5 51 16 142 20 180 10 96 18 160 21 190 28
236 19 705 -21 1090 -3 25 -7 70 -10 100 -3 30 -8 66 -10 80 -2 14 -7 45 -9
70 -3 25 -7 56 -10 69 -3 12 -8 42 -10 65 -8 61 -50 292 -60 324 -3 9 -8 33
-11 52 -3 19 -17 78 -31 130 -14 52 -27 102 -29 110 -5 24 -115 363 -125 385
-5 11 -19 47 -30 80 -12 33 -25 69 -30 80 -20 45 -111 231 -123 250 -30 48
-72 111 -82 122 -5 6 -21 26 -34 45 -29 39 -205 214 -247 245 -28 20 -98 74
-119 91 -5 4 -57 41 -115 82 -58 41 -107 77 -110 80 -3 3 -13 10 -22 15 -9 6
-44 29 -78 53 -33 23 -63 42 -66 42 -3 0 -14 8 -25 18 -10 11 -32 25 -47 33
-15 8 -29 16 -32 20 -3 3 -61 43 -130 90 -68 46 -131 89 -140 96 -8 6 -61 45
-116 87 -111 83 -239 203 -297 280 -31 42 -94 158 -118 221 -32 81 -44 255
-25 355 35 181 162 394 341 576 120 120 315 274 448 353 22 13 50 32 61 42 11
11 23 19 26 19 4 0 61 31 127 69 102 59 444 231 457 231 3 0 33 13 68 29 35
16 84 36 111 46 43 16 59 26 40 24 -5 0 -97 -31 -206 -69z"/>
<path d="M8963 12703 c-15 -21 -46 -54 -70 -73 -24 -19 -50 -41 -58 -48 -42
-38 -247 -118 -345 -136 -14 -2 -32 -7 -40 -10 -8 -2 -33 -7 -55 -10 -22 -3
-65 -11 -95 -17 -30 -7 -59 -12 -64 -11 -4 2 -14 -2 -20 -8 -7 -5 -15 -8 -18
-5 -13 14 -329 -101 -381 -139 -50 -36 -80 -101 -93 -201 -6 -40 -5 -165 0
-190 2 -11 5 -26 5 -32 2 -28 87 -59 191 -68 19 -2 59 -7 88 -10 77 -9 255
-10 346 -1 77 8 95 10 146 21 14 3 34 7 45 9 112 22 256 97 335 175 130 128
151 212 153 603 0 103 -15 188 -35 188 -4 0 -20 -17 -35 -37z"/>
<path d="M11429 12715 c-76 -92 -137 -139 -249 -193 -73 -35 -192 -71 -281
-86 -19 -3 -45 -8 -59 -11 -34 -7 -68 -13 -114 -21 -22 -3 -51 -10 -65 -16
-14 -5 -28 -9 -31 -9 -21 2 -209 -60 -290 -96 -120 -53 -159 -126 -164 -313
-3 -99 8 -158 32 -176 19 -15 90 -31 172 -40 131 -13 160 -15 240 -16 88 -1
268 9 279 16 4 3 26 7 50 11 24 3 70 15 102 24 32 10 61 16 64 13 3 -3 5 0 5
6 0 7 7 12 15 12 17 0 97 43 145 78 50 37 120 112 120 128 0 8 4 14 9 14 12 0
51 99 67 172 9 39 16 388 9 444 -3 28 -12 60 -19 70 -12 16 -15 15 -37 -11z"/>
</g>
</svg>
